<svg width="455" height="117" viewBox="0 0 455 117" fill="none" xmlns="http://www.w3.org/2000/svg">
<path d="M37.5537 84.5977C27.8718 84.5156 20.896 80.6285 20.8258 80.5904C8.64232 73.5877 3.65668 64.0798 1.62268 57.3353C-0.297339 50.9781 -0.0313929 45.8119 0.0767362 44.5299H3.89632C3.89632 44.5299 4.60938 44.5357 5.80465 44.6648L6.19041 44.7059V42.9692C6.19625 40.0619 6.19918 37.052 6.1758 34.0949C6.1758 33.7194 6.26055 33.5169 6.79242 33.3116C9.15958 32.3934 11.667 31.393 14.4608 30.2518C14.7034 30.152 14.9109 30.1051 15.1125 30.1051C15.3142 30.1051 15.5304 30.155 15.7671 30.2635C16.1821 30.4513 16.4247 30.5569 16.6351 30.5569C17.1962 30.5569 17.1962 29.9936 17.1962 29.448V28.3185C17.1991 27.2301 17.202 26.1417 17.1933 25.0534C17.1933 24.8128 17.2546 24.6661 17.617 24.5253L17.6959 24.496C20.2647 23.4897 22.9212 22.4512 25.5105 21.3863C25.7822 21.2748 26.0306 21.222 26.279 21.222C26.5596 21.222 26.8401 21.2895 27.1587 21.4391C27.4392 21.5682 27.7286 21.6885 28.0179 21.8087L28.2429 21.9026C28.4007 21.9701 28.541 22.0023 28.6667 22.0023C28.9414 22.0023 29.2687 21.8263 29.2774 21.3276C29.2804 21.1575 29.2833 20.9902 29.2833 20.8201V17.1002C29.2891 13.1985 29.292 9.16468 29.2687 5.19838C29.2657 4.59111 29.406 4.23027 30.1863 3.93397C32.1443 3.18882 34.1082 2.3938 36.0107 1.62518C36.6448 1.36996 37.279 1.1118 37.9131 0.856568C38.0622 0.794961 38.2025 0.765625 38.3398 0.765625C38.4772 0.765625 38.6087 0.79496 38.7519 0.850699L39.8332 1.28782C42.1419 2.22072 44.5295 3.18882 46.8908 4.12173C47.3408 4.30068 47.4227 4.49137 47.4197 4.8082C47.4051 6.9263 47.4081 9.0444 47.411 11.1596V12.7437C47.411 13.084 47.411 13.7177 48.013 13.7177C48.1971 13.7177 48.4104 13.6473 48.7348 13.5212C48.8868 13.4625 49.0329 13.3979 49.179 13.3305C49.3164 13.2689 49.4508 13.2073 49.5911 13.1545C49.7401 13.0958 49.8921 13.0664 50.0382 13.0664C50.1843 13.0664 50.3451 13.0987 50.497 13.1603L51.8004 13.6796C54.0653 14.5831 56.3331 15.4867 58.6038 16.3785C59.0626 16.5575 59.1474 16.7658 59.1444 17.109C59.1269 20.3947 59.1298 23.7361 59.1298 26.9661V30.1022C59.1328 30.1931 59.1357 30.2841 59.1298 30.375C59.124 30.639 59.1854 30.8326 59.3198 30.9705C59.3987 31.0497 59.539 31.1466 59.7611 31.1466C59.9013 31.1466 60.0592 31.1084 60.2462 31.0292C60.5647 30.8972 60.8862 30.7681 61.2047 30.642C61.5934 30.4894 61.9792 30.3339 62.362 30.1726C62.514 30.108 62.6543 30.0758 62.7916 30.0758C62.929 30.0758 63.078 30.108 63.2417 30.1726C65.7462 31.1847 68.4143 32.2613 71.0679 33.3028C71.6202 33.5199 71.7196 33.7516 71.7137 34.1301C71.6903 36.9317 71.6933 39.7803 71.6962 42.535V44.5299H75.0277C75.1359 45.8148 75.4018 50.9781 73.4818 57.3353C71.4449 64.0798 66.4622 73.5877 54.2757 80.5933C54.2085 80.6314 47.2327 84.5185 37.5508 84.6007L37.5537 84.5977ZM42.2383 79.3934L42.5481 79.9772C42.6825 79.9567 55.9853 77.8269 62.967 68.577C63.2913 68.1341 70.8575 57.7343 70.951 50.0598C70.9773 49.9102 71.0357 49.4173 70.7669 49.0858C70.6587 48.9538 70.46 48.7925 70.1122 48.7925C70.045 48.7925 69.9749 48.7983 69.896 48.8101C69.8609 48.8159 69.7791 48.8247 69.6593 48.8365C63.9635 49.3909 44.9971 53.0081 40.0465 76.3072L40.6135 76.6475L58.9983 61.0728L42.2383 79.3905V79.3934ZM4.15933 50.0598C4.25285 57.7372 11.816 68.1341 12.1404 68.5741C19.125 77.8269 32.4278 79.9567 32.5622 79.9772L32.872 79.3934L16.112 61.0728L34.4969 76.6475L35.0638 76.3072C30.1132 53.0081 11.1468 49.3909 5.45104 48.8365C5.33122 48.8247 5.25232 48.8189 5.21433 48.8101C5.13542 48.7983 5.06529 48.7925 4.99807 48.7925C4.6503 48.7925 4.45157 48.9509 4.34345 49.0858C4.07458 49.4173 4.13595 49.9102 4.15933 50.0598ZM37.6034 67.9991C37.767 67.9991 37.9102 67.9052 37.9804 67.7527C38.1586 67.3742 38.3427 66.9987 38.5269 66.632L38.5648 66.5587V2.80745V2.59622C38.5648 2.50235 38.5648 2.40553 38.5648 2.31166C38.5648 2.06816 38.5093 1.88628 38.3837 1.76013C38.3106 1.68386 38.1762 1.59585 37.9687 1.59585C37.843 1.59585 37.6998 1.62812 37.5303 1.69559C35.2888 2.59622 33.0415 3.49099 30.7912 4.37695C30.1512 4.62925 30.1512 5.12503 30.1512 5.4536C30.1512 8.88598 30.1512 12.3154 30.1512 15.7478V17.0357C30.1512 17.4699 30.1512 17.904 30.1571 18.3412C30.1629 19.4002 30.1717 20.4944 30.1366 21.5652C30.1103 22.3309 30.461 22.8003 31.2676 23.0937C31.9865 23.3548 32.7083 23.6452 33.4068 23.9268C33.8539 24.1058 34.2981 24.2877 34.7482 24.4607C35.1661 24.6221 35.2421 24.7805 35.2391 25.0504C35.2245 30.6654 35.2245 52.3833 35.2245 64.0534V64.1472L35.2713 64.2294C35.9405 65.3823 36.563 66.5675 37.1241 67.7556C37.1942 67.9052 37.3404 67.9991 37.5011 67.9991C37.5157 67.9991 37.5332 67.9991 37.5508 67.9991C37.5683 67.9991 37.5829 67.9991 37.6005 67.9991H37.6034ZM26.5888 21.9495C26.3492 21.9495 26.0599 22.105 26.0453 22.5363C26.0394 22.7064 26.0394 22.8766 26.0394 23.0497V53.2516L26.1651 53.3572C29.0699 55.7687 31.6475 58.6378 33.8218 61.8883L34.4618 61.6918C34.4589 41.4055 34.4618 29.7912 34.4822 26.1828C34.4881 25.2939 34.1082 24.7952 33.1759 24.4578C31.8433 23.9738 30.5107 23.4398 29.219 22.9206C28.6696 22.7006 28.1172 22.4776 27.5649 22.2605C27.4509 22.2165 27.337 22.1754 27.2201 22.1314C27.1149 22.0933 27.0067 22.0552 26.9015 22.0141C26.7875 21.9701 26.6823 21.9466 26.5859 21.9466L26.5888 21.9495ZM49.6875 13.8321C49.5648 13.8321 49.4274 13.8644 49.2667 13.9289L48.0714 14.413C46.3677 15.1053 44.6084 15.8182 42.8637 16.4959C42.1536 16.7716 41.8526 17.1941 41.8526 17.9099C41.8672 25.8894 41.8642 50.6495 41.8642 59.9697L42.4926 60.178C44.7019 57.2062 47.2765 54.5864 50.1493 52.395L50.2866 52.2894V15.0115C50.2866 14.8442 50.2866 14.6741 50.2837 14.5069C50.2749 14.0081 49.9681 13.8321 49.6846 13.8321H49.6875ZM15.396 30.774C14.8057 30.774 14.8057 31.3812 14.8057 31.8242V46.0466C14.8057 46.2578 14.8057 46.425 14.7911 46.5277L14.7531 46.8064L15.0161 46.9061C17.7631 47.9388 20.3846 49.2707 22.8072 50.8695L23.3479 50.5761C23.3479 46.1258 23.342 37.8382 23.3625 34.8811C23.3683 33.9687 22.8014 33.6284 22.2432 33.4113C21.0625 32.9566 19.8731 32.4755 18.7217 32.012C17.8859 31.6746 17.053 31.3372 16.2113 31.0087C15.7993 30.8473 15.583 30.774 15.3931 30.774H15.396ZM62.4146 30.7828C62.2773 30.7828 62.1224 30.818 61.9412 30.8884L61.0528 31.2434C59.1415 32.0061 57.2273 32.7718 55.3073 33.5199C54.6322 33.7839 54.5417 34.2621 54.5417 34.6963C54.5475 37.5683 54.5475 44.2013 54.5475 48.901V49.4907L55.0648 49.2091C57.5196 47.8684 60.1351 46.7859 62.8384 45.9879L63.0897 45.9146V32.0442C63.0897 31.8741 63.0897 31.7039 63.0839 31.5338C63.0692 30.9823 62.7302 30.7857 62.4175 30.7857L62.4146 30.7828Z" fill="#6FBE44"/>
<path d="M105.804 54.2521C103.945 53.4365 102.484 52.2777 101.423 50.7786C100.359 49.2795 99.8302 47.5311 99.8302 45.5303H105.906C106.037 47.0294 106.628 48.2616 107.674 49.2297C108.72 50.1948 110.187 50.6789 112.081 50.6789C113.975 50.6789 115.567 50.2036 116.66 49.2531C117.756 48.3026 118.303 47.0793 118.303 45.5802C118.303 44.4155 117.961 43.465 117.283 42.7316C116.602 41.9982 115.754 41.432 114.743 41.033C113.729 40.6341 112.329 40.1999 110.535 39.7334C108.276 39.135 106.444 38.5248 105.032 37.9087C103.621 37.2926 102.417 36.3333 101.423 35.0337C100.426 33.7341 99.9296 32.0033 99.9296 29.8353C99.9296 27.8345 100.426 26.0861 101.423 24.587C102.419 23.0879 103.813 21.9379 105.605 21.137C107.396 20.3361 109.471 19.9371 111.83 19.9371C115.182 19.9371 117.929 20.7791 120.071 22.4601C122.213 24.144 123.399 26.4498 123.63 29.3835H117.356C117.257 28.1162 116.657 27.0336 115.564 26.133C114.469 25.2324 113.025 24.7835 111.233 24.7835C109.606 24.7835 108.279 25.2001 107.25 26.0333C106.222 26.8664 105.707 28.0663 105.707 29.6329C105.707 30.7007 106.032 31.5749 106.677 32.2585C107.323 32.942 108.147 33.4818 109.141 33.8837C110.138 34.2827 111.496 34.7169 113.224 35.1833C115.515 35.817 117.382 36.4507 118.826 37.0814C120.27 37.7151 121.497 38.6891 122.511 40.0063C123.522 41.3235 124.031 43.0807 124.031 45.278C124.031 47.0441 123.557 48.7104 122.61 50.277C121.664 51.8436 120.287 53.1021 118.478 54.0497C116.669 55.0002 114.536 55.4754 112.081 55.4754C109.758 55.4754 107.665 55.0676 105.807 54.2521H105.804Z" fill="#6FBE44"/>
<path d="M155.596 27.5851V55.1262H149.92V51.8757C149.023 53.0081 147.854 53.9 146.41 54.5512C144.967 55.1996 143.43 55.5252 141.805 55.5252C139.645 55.5252 137.713 55.0764 136.004 54.1757C134.294 53.2751 132.95 51.9432 131.971 50.1772C130.992 48.4111 130.501 46.2783 130.501 43.7789V27.5851H136.126V42.931C136.126 45.3982 136.74 47.2875 137.968 48.6047C139.195 49.9219 140.872 50.5791 142.997 50.5791C145.122 50.5791 146.805 49.9219 148.05 48.6047C149.295 47.2875 149.917 45.3982 149.917 42.931V27.5851H155.593H155.596Z" fill="#6FBE44"/>
<path d="M167.224 54.4016C165.514 53.6183 164.161 52.5534 163.165 51.2039C162.168 49.8545 161.636 48.3466 161.572 46.6802H167.449C167.548 47.8478 168.103 48.8218 169.118 49.6051C170.129 50.3884 171.4 50.7786 172.925 50.7786C174.451 50.7786 175.754 50.4705 176.634 49.8545C177.514 49.2384 177.955 48.4463 177.955 47.4811C177.955 46.4485 177.464 45.6828 176.485 45.1811C175.506 44.6824 173.954 44.1309 171.83 43.5324C169.772 42.9662 168.095 42.4176 166.8 41.8837C165.505 41.3498 164.386 40.5342 163.439 39.4341C162.492 38.334 162.019 36.8848 162.019 35.0864C162.019 33.6196 162.452 32.2789 163.314 31.0615C164.176 29.844 165.412 28.8876 167.022 28.1865C168.632 27.4853 170.482 27.1362 172.575 27.1362C175.696 27.1362 178.209 27.9283 180.118 29.5096C182.026 31.0937 183.046 33.25 183.18 35.9812H177.505C177.406 34.7491 176.909 33.7663 176.012 33.0329C175.114 32.2995 173.904 31.9328 172.376 31.9328C170.848 31.9328 169.737 32.2173 168.939 32.7835C168.141 33.3497 167.744 34.1007 167.744 35.0336C167.744 35.767 168.01 36.3831 168.542 36.8818C169.074 37.3806 169.72 37.7737 170.482 38.0553C171.245 38.3399 172.373 38.6978 173.869 39.129C175.862 39.6629 177.496 40.2027 178.773 40.7543C180.05 41.3029 181.155 42.1125 182.084 43.1775C183.014 44.2453 183.496 45.6593 183.528 47.4254C183.528 48.992 183.095 50.3913 182.233 51.6234C181.368 52.8556 180.15 53.8237 178.574 54.5219C176.996 55.223 175.146 55.5722 173.022 55.5722C170.897 55.5722 168.931 55.179 167.221 54.3987L167.224 54.4016Z" fill="#6FBE44"/>
<path d="M196.276 32.2349V47.4811C196.276 48.5137 196.515 49.256 196.997 49.7048C197.477 50.1537 198.301 50.3796 199.461 50.3796H202.947V55.1291H198.467C195.91 55.1291 193.952 54.5307 192.593 53.3308C191.231 52.1309 190.551 50.183 190.551 47.484V32.2378H187.312V27.588H190.551V20.7408H196.276V27.588H202.947V32.2378H196.276V32.2349Z" fill="#6FBE44"/>
<path d="M208.003 33.8836C209.149 31.7509 210.709 30.0934 212.685 28.9111C214.66 27.7288 216.843 27.1362 219.234 27.1362C221.391 27.1362 223.276 27.5616 224.886 28.4094C226.496 29.2602 227.782 30.3163 228.744 31.5837V27.5851H234.469V55.1262H228.744V51.0279C227.779 52.3275 226.47 53.41 224.81 54.2784C223.15 55.1438 221.256 55.578 219.135 55.578C216.776 55.578 214.62 54.9707 212.661 53.7533C210.703 52.5387 209.152 50.8372 208.006 48.6546C206.861 46.4719 206.288 43.9989 206.288 41.2324C206.288 38.466 206.861 36.0164 208.006 33.8836H208.003ZM227.572 36.3831C226.791 34.9838 225.771 33.9159 224.509 33.1854C223.246 32.452 221.888 32.0853 220.426 32.0853C218.965 32.0853 217.603 32.4432 216.344 33.159C215.081 33.8748 214.061 34.9251 213.281 36.3068C212.501 37.6886 212.112 39.3314 212.112 41.2295C212.112 43.1276 212.501 44.7968 213.281 46.2285C214.061 47.663 215.09 48.7514 216.367 49.5024C217.644 50.2534 218.997 50.626 220.426 50.626C221.855 50.626 223.246 50.2593 224.509 49.5259C225.771 48.7925 226.791 47.7188 227.572 46.3018C228.352 44.8848 228.741 43.2273 228.741 41.3293C228.741 39.4312 228.349 37.7795 227.572 36.3802V36.3831Z" fill="#6FBE44"/>
<path d="M242.236 22.8854C241.538 22.1843 241.19 21.3188 241.19 20.2862C241.19 19.2535 241.538 18.3881 242.236 17.687C242.935 16.9858 243.797 16.6367 244.825 16.6367C245.854 16.6367 246.667 16.9858 247.365 17.687C248.063 18.3881 248.411 19.2535 248.411 20.2862C248.411 21.3188 248.063 22.1843 247.365 22.8854C246.667 23.5865 245.822 23.9357 244.825 23.9357C243.829 23.9357 242.935 23.5865 242.236 22.8854ZM247.613 27.5851V55.1263H241.938V27.5851H247.613Z" fill="#6FBE44"/>
<path d="M274.725 28.4857C276.434 29.3863 277.77 30.7182 278.731 32.4843C279.693 34.2503 280.175 36.3831 280.175 38.8826V55.1262H274.549V39.7304C274.549 37.2661 273.936 35.3739 272.708 34.0567C271.481 32.7395 269.803 32.0824 267.679 32.0824C265.554 32.0824 263.871 32.7395 262.626 34.0567C261.381 35.3739 260.758 37.2632 260.758 39.7304V55.1262H255.083V27.5851H260.758V30.7329C261.688 29.6005 262.874 28.7175 264.318 28.0838C265.762 27.4501 267.296 27.1333 268.924 27.1333C271.08 27.1333 273.015 27.5822 274.725 28.4828V28.4857Z" fill="#6FBE44"/>
<path d="M293.072 20.3889V55.1293H287.396V20.3889H293.072Z" fill="white"/>
<path d="M320.186 28.4857C321.895 29.3863 323.231 30.7182 324.192 32.4843C325.154 34.2503 325.636 36.3831 325.636 38.8826V55.1262H320.01V39.7304C320.01 37.2661 319.397 35.3739 318.169 34.0567C316.942 32.7395 315.264 32.0824 313.14 32.0824C311.015 32.0824 309.332 32.7395 308.087 34.0567C306.842 35.3739 306.22 37.2632 306.22 39.7304V55.1262H300.544V27.5851H306.22V30.7329C307.149 29.6005 308.335 28.7175 309.779 28.0838C311.223 27.4501 312.757 27.1333 314.385 27.1333C316.541 27.1333 318.476 27.5822 320.186 28.4828V28.4857Z" fill="white"/>
<path d="M337.013 54.4016C335.303 53.6183 333.95 52.5534 332.954 51.2039C331.957 49.8545 331.425 48.3466 331.361 46.6802H337.238C337.337 47.8478 337.892 48.8218 338.907 49.6051C339.918 50.3884 341.189 50.7786 342.714 50.7786C344.24 50.7786 345.543 50.4705 346.423 49.8545C347.303 49.2384 347.744 48.4463 347.744 47.4811C347.744 46.4485 347.253 45.6828 346.274 45.1811C345.295 44.6824 343.743 44.1309 341.619 43.5324C339.561 42.9662 337.884 42.4176 336.589 41.8837C335.294 41.3498 334.175 40.5342 333.228 39.4341C332.281 38.334 331.808 36.8848 331.808 35.0864C331.808 33.6196 332.24 32.2789 333.103 31.0615C333.965 29.844 335.201 28.8876 336.811 28.1865C338.421 27.4853 340.271 27.1362 342.364 27.1362C345.485 27.1362 347.998 27.9283 349.906 29.5096C351.815 31.0937 352.835 33.25 352.969 35.9812H347.294C347.194 34.7491 346.698 33.7663 345.8 33.0329C344.903 32.2995 343.693 31.9328 342.165 31.9328C340.637 31.9328 339.526 32.2173 338.728 32.7835C337.93 33.3497 337.533 34.1007 337.533 35.0336C337.533 35.767 337.799 36.3831 338.331 36.8818C338.863 37.3806 339.509 37.7737 340.271 38.0553C341.034 38.3399 342.162 38.6978 343.658 39.129C345.651 39.6629 347.285 40.2027 348.562 40.7543C349.839 41.3029 350.944 42.1125 351.873 43.1775C352.803 44.2453 353.285 45.6593 353.317 47.4254C353.317 48.992 352.884 50.3913 352.022 51.6234C351.157 52.8556 349.939 53.8237 348.363 54.5219C346.785 55.223 344.935 55.5722 342.811 55.5722C340.686 55.5722 338.719 55.179 337.01 54.3987L337.013 54.4016Z" fill="white"/>
<path d="M359.743 22.8854C359.045 22.1843 358.697 21.3188 358.697 20.2862C358.697 19.2535 359.045 18.3881 359.743 17.687C360.442 16.9858 361.304 16.6367 362.333 16.6367C363.361 16.6367 364.174 16.9858 364.872 17.687C365.571 18.3881 365.918 19.2535 365.918 20.2862C365.918 21.3188 365.571 22.1843 364.872 22.8854C364.174 23.5865 363.329 23.9357 362.333 23.9357C361.336 23.9357 360.442 23.5865 359.743 22.8854ZM365.124 27.5851V55.1263H359.448V27.5851H365.124Z" fill="white"/>
<path d="M389.298 28.4095C390.94 29.2602 392.226 30.3163 393.155 31.5837V27.5851H398.88V55.5751C398.88 58.1068 398.348 60.3657 397.288 62.3489C396.224 64.332 394.689 65.8898 392.682 67.0222C390.674 68.1546 388.275 68.7208 385.487 68.7208C381.77 68.7208 378.681 67.8466 376.226 66.0952C373.768 64.3467 372.374 61.9705 372.044 58.9723H377.669C378.099 60.4039 379.022 61.5627 380.434 62.4457C381.846 63.3287 383.529 63.7688 385.487 63.7688C387.778 63.7688 389.628 63.0706 391.039 61.6683C392.451 60.2689 393.155 58.2359 393.155 55.5692V50.9722C392.191 52.2718 390.89 53.3631 389.245 54.2461C387.603 55.1292 385.735 55.5692 383.643 55.5692C381.252 55.5692 379.069 54.962 377.094 53.7445C375.118 52.53 373.558 50.8284 372.412 48.6458C371.266 46.4632 370.694 43.9901 370.694 41.2237C370.694 38.4572 371.266 36.0076 372.412 33.8748C373.558 31.7421 375.118 30.0846 377.094 28.9023C379.069 27.72 381.252 27.1274 383.643 27.1274C385.767 27.1274 387.649 27.5528 389.295 28.4006L389.298 28.4095ZM391.986 36.3831C391.206 34.9838 390.186 33.9159 388.924 33.1854C387.661 32.452 386.302 32.0853 384.841 32.0853C383.38 32.0853 382.018 32.4432 380.758 33.159C379.496 33.8748 378.476 34.9251 377.696 36.3068C376.915 37.6886 376.527 39.3314 376.527 41.2295C376.527 43.1276 376.915 44.7968 377.696 46.2285C378.476 47.663 379.505 48.7514 380.782 49.5024C382.059 50.2534 383.412 50.626 384.841 50.626C386.27 50.626 387.661 50.2593 388.924 49.5259C390.186 48.7925 391.206 47.7188 391.986 46.3018C392.767 44.8849 393.155 43.2273 393.155 41.3293C393.155 39.4312 392.764 37.7795 391.986 36.3802V36.3831Z" fill="white"/>
<path d="M426.143 28.4858C427.786 29.3864 429.08 30.7183 430.027 32.4844C430.974 34.2504 431.448 36.3832 431.448 38.8827V55.1263H425.822V39.7305C425.822 37.2662 425.208 35.374 423.981 34.0568C422.753 32.7396 421.076 32.0825 418.951 32.0825C416.827 32.0825 415.143 32.7396 413.898 34.0568C412.654 35.374 412.031 37.2633 412.031 39.7305V55.1263H406.356V18.1388H412.031V30.7858C412.993 29.6211 414.214 28.7205 415.69 28.0868C417.166 27.4531 418.785 27.1363 420.544 27.1363C422.636 27.1363 424.504 27.5852 426.146 28.4858H426.143Z" fill="white"/>
<path d="M445.288 32.2349V47.4811C445.288 48.5137 445.528 49.256 446.01 49.7048C446.489 50.1537 447.313 50.3796 448.474 50.3796H451.96V55.1291H447.48C444.923 55.1291 442.965 54.5307 441.606 53.3308C440.244 52.1309 439.563 50.183 439.563 47.484V32.2378H436.325V27.588H439.563V20.7408H445.288V27.588H451.96V32.2378H445.288V32.2349Z" fill="white"/>
<path d="M87.2522 0V85.3605" stroke="#131313" stroke-miterlimit="10"/>
<path d="M167.96 91H164.996L160.039 83.4946V91H157.075V78.832H160.039L164.996 86.372V78.832H167.96V91Z" fill="white"/>
<path d="M179.226 86.008C179.226 86.2853 179.209 86.5742 179.174 86.8746H172.466C172.512 87.4755 172.703 87.9377 173.038 88.2613C173.385 88.5733 173.806 88.7293 174.303 88.7293C175.043 88.7293 175.557 88.4173 175.846 87.7933H179.001C178.839 88.4289 178.544 89.0009 178.117 89.5093C177.701 90.0177 177.175 90.4164 176.539 90.7053C175.904 90.9942 175.193 91.1386 174.407 91.1386C173.46 91.1386 172.616 90.9364 171.877 90.532C171.137 90.1275 170.559 89.5497 170.143 88.7986C169.727 88.0475 169.519 87.1693 169.519 86.164C169.519 85.1586 169.721 84.2804 170.126 83.5293C170.542 82.7782 171.12 82.2004 171.859 81.796C172.599 81.3915 173.448 81.1893 174.407 81.1893C175.343 81.1893 176.175 81.3857 176.903 81.7786C177.631 82.1715 178.197 82.732 178.602 83.46C179.018 84.188 179.226 85.0373 179.226 86.008ZM176.193 85.228C176.193 84.7195 176.019 84.3151 175.673 84.0146C175.326 83.7142 174.893 83.564 174.373 83.564C173.876 83.564 173.454 83.7084 173.107 83.9973C172.772 84.2862 172.564 84.6964 172.483 85.228H176.193Z" fill="white"/>
<path d="M186.51 91L184.655 88.3133L183.095 91H179.888L183.078 86.06L179.802 81.328H183.13L184.984 83.9973L186.544 81.328H189.751L186.51 86.1986L189.838 91H186.51Z" fill="white"/>
<path d="M196.37 88.4866V91H194.862C193.788 91 192.95 90.74 192.349 90.22C191.748 89.6884 191.448 88.8275 191.448 87.6373V83.7893H190.269V81.328H191.448V78.9706H194.412V81.328H196.353V83.7893H194.412V87.672C194.412 87.9609 194.481 88.1689 194.62 88.296C194.758 88.4231 194.989 88.4866 195.313 88.4866H196.37Z" fill="white"/>
<path d="M205.475 83.6853V86.1466H197.848V83.6853H205.475Z" fill="white"/>
<path d="M216.153 82.68C215.934 82.2755 215.616 81.9693 215.2 81.7613C214.796 81.5417 214.316 81.432 213.761 81.432C212.802 81.432 212.034 81.7497 211.456 82.3853C210.878 83.0093 210.589 83.8471 210.589 84.8986C210.589 86.0195 210.89 86.8977 211.491 87.5333C212.103 88.1573 212.941 88.4693 214.004 88.4693C214.732 88.4693 215.344 88.2844 215.841 87.9146C216.35 87.5449 216.72 87.0133 216.951 86.32H213.189V84.136H219.637V86.892C219.418 87.6315 219.042 88.3191 218.511 88.9546C217.991 89.5902 217.326 90.1044 216.517 90.4973C215.708 90.8902 214.796 91.0866 213.779 91.0866C212.577 91.0866 211.502 90.8266 210.555 90.3066C209.619 89.7751 208.885 89.0413 208.353 88.1053C207.833 87.1693 207.573 86.1004 207.573 84.8986C207.573 83.6969 207.833 82.628 208.353 81.692C208.885 80.7444 209.619 80.0106 210.555 79.4906C211.491 78.9591 212.56 78.6933 213.761 78.6933C215.217 78.6933 216.442 79.0457 217.436 79.7506C218.441 80.4555 219.106 81.432 219.429 82.68H216.153Z" fill="white"/>
<path d="M230.396 86.008C230.396 86.2853 230.379 86.5742 230.344 86.8746H223.636C223.683 87.4755 223.873 87.9377 224.208 88.2613C224.555 88.5733 224.977 88.7293 225.474 88.7293C226.213 88.7293 226.728 88.4173 227.016 87.7933H230.171C230.009 88.4289 229.715 89.0009 229.287 89.5093C228.871 90.0177 228.345 90.4164 227.71 90.7053C227.074 90.9942 226.364 91.1386 225.578 91.1386C224.63 91.1386 223.787 90.9364 223.047 90.532C222.308 90.1275 221.73 89.5497 221.314 88.7986C220.898 88.0475 220.69 87.1693 220.69 86.164C220.69 85.1586 220.892 84.2804 221.296 83.5293C221.712 82.7782 222.29 82.2004 223.03 81.796C223.769 81.3915 224.619 81.1893 225.578 81.1893C226.514 81.1893 227.346 81.3857 228.074 81.7786C228.802 82.1715 229.368 82.732 229.772 83.46C230.188 84.188 230.396 85.0373 230.396 86.008ZM227.363 85.228C227.363 84.7195 227.19 84.3151 226.843 84.0146C226.496 83.7142 226.063 83.564 225.543 83.564C225.046 83.564 224.624 83.7084 224.278 83.9973C223.943 84.2862 223.735 84.6964 223.654 85.228H227.363Z" fill="white"/>
<path d="M237.853 81.224C238.986 81.224 239.887 81.5937 240.557 82.3333C241.239 83.0613 241.58 84.0666 241.58 85.3493V91H238.633V85.748C238.633 85.1009 238.466 84.5982 238.131 84.24C237.796 83.8817 237.345 83.7026 236.779 83.7026C236.213 83.7026 235.762 83.8817 235.427 84.24C235.092 84.5982 234.924 85.1009 234.924 85.748V91H231.96V81.328H234.924V82.6106C235.225 82.1831 235.629 81.848 236.137 81.6053C236.646 81.3511 237.218 81.224 237.853 81.224Z" fill="white"/>
<path d="M251.716 91.1213C250.826 91.1213 250.029 90.9769 249.324 90.688C248.619 90.3991 248.053 89.9715 247.625 89.4053C247.209 88.8391 246.989 88.1573 246.966 87.36H250.121C250.167 87.8106 250.323 88.1573 250.589 88.4C250.855 88.6311 251.201 88.7466 251.629 88.7466C252.068 88.7466 252.415 88.6484 252.669 88.452C252.923 88.244 253.05 87.9609 253.05 87.6026C253.05 87.3022 252.946 87.0537 252.738 86.8573C252.542 86.6609 252.293 86.4991 251.993 86.372C251.704 86.2449 251.288 86.1004 250.745 85.9386C249.959 85.696 249.318 85.4533 248.821 85.2106C248.324 84.968 247.897 84.6097 247.538 84.136C247.18 83.6622 247.001 83.044 247.001 82.2813C247.001 81.1489 247.411 80.2649 248.232 79.6293C249.052 78.9822 250.121 78.6586 251.438 78.6586C252.779 78.6586 253.859 78.9822 254.68 79.6293C255.5 80.2649 255.939 81.1546 255.997 82.2986H252.79C252.767 81.9057 252.623 81.5995 252.357 81.38C252.091 81.1489 251.75 81.0333 251.334 81.0333C250.976 81.0333 250.687 81.1315 250.468 81.328C250.248 81.5129 250.138 81.7844 250.138 82.1426C250.138 82.5355 250.323 82.8417 250.693 83.0613C251.063 83.2809 251.641 83.5177 252.426 83.772C253.212 84.0377 253.848 84.292 254.333 84.5346C254.83 84.7773 255.257 85.1297 255.616 85.592C255.974 86.0542 256.153 86.6493 256.153 87.3773C256.153 88.0706 255.974 88.7004 255.616 89.2666C255.269 89.8329 254.761 90.2835 254.09 90.6186C253.42 90.9537 252.629 91.1213 251.716 91.1213Z" fill="white"/>
<path d="M267.528 81.328V91H264.564V89.6826C264.263 90.1102 263.853 90.4569 263.333 90.7226C262.825 90.9769 262.258 91.104 261.634 91.104C260.895 91.104 260.242 90.9422 259.676 90.6186C259.11 90.2835 258.67 89.804 258.358 89.18C258.046 88.556 257.89 87.8222 257.89 86.9786V81.328H260.837V86.58C260.837 87.2271 261.005 87.7297 261.34 88.088C261.675 88.4462 262.126 88.6253 262.692 88.6253C263.27 88.6253 263.726 88.4462 264.061 88.088C264.396 87.7297 264.564 87.2271 264.564 86.58V81.328H267.528Z" fill="white"/>
<path d="M273.591 91.1386C272.748 91.1386 271.997 90.9942 271.338 90.7053C270.679 90.4164 270.159 90.0235 269.778 89.5266C269.397 89.0182 269.183 88.452 269.137 87.828H272.066C272.101 88.1631 272.257 88.4346 272.534 88.6426C272.811 88.8506 273.152 88.9546 273.557 88.9546C273.927 88.9546 274.21 88.8853 274.406 88.7466C274.614 88.5964 274.718 88.4057 274.718 88.1746C274.718 87.8973 274.574 87.6951 274.285 87.568C273.996 87.4293 273.528 87.2791 272.881 87.1173C272.187 86.9555 271.61 86.788 271.147 86.6146C270.685 86.4297 270.287 86.1466 269.951 85.7653C269.616 85.3724 269.449 84.8466 269.449 84.188C269.449 83.6333 269.599 83.1306 269.899 82.68C270.211 82.2177 270.662 81.8537 271.251 81.588C271.852 81.3222 272.563 81.1893 273.383 81.1893C274.597 81.1893 275.55 81.4897 276.243 82.0906C276.948 82.6915 277.353 83.4889 277.457 84.4826H274.718C274.672 84.1475 274.522 83.8817 274.267 83.6853C274.025 83.4889 273.701 83.3906 273.297 83.3906C272.95 83.3906 272.684 83.46 272.499 83.5986C272.315 83.7257 272.222 83.9049 272.222 84.136C272.222 84.4133 272.367 84.6213 272.655 84.76C272.956 84.8986 273.418 85.0373 274.042 85.176C274.759 85.3609 275.342 85.5457 275.793 85.7306C276.243 85.904 276.636 86.1929 276.971 86.5973C277.318 86.9902 277.497 87.5217 277.509 88.192C277.509 88.7582 277.347 89.2666 277.023 89.7173C276.711 90.1564 276.255 90.5031 275.654 90.7573C275.065 91.0115 274.377 91.1386 273.591 91.1386Z" fill="white"/>
<path d="M284.713 88.4866V91H283.205C282.13 91 281.292 90.74 280.691 90.22C280.091 89.6884 279.79 88.8275 279.79 87.6373V83.7893H278.611V81.328H279.79V78.9706H282.754V81.328H284.695V83.7893H282.754V87.672C282.754 87.9609 282.823 88.1689 282.962 88.296C283.101 88.4231 283.332 88.4866 283.655 88.4866H284.713Z" fill="white"/>
<path d="M285.774 86.1466C285.774 85.1529 285.959 84.2804 286.329 83.5293C286.71 82.7782 287.225 82.2004 287.872 81.796C288.519 81.3915 289.241 81.1893 290.038 81.1893C290.72 81.1893 291.315 81.328 291.824 81.6053C292.344 81.8826 292.742 82.2466 293.02 82.6973V81.328H295.984V91H293.02V89.6306C292.731 90.0813 292.326 90.4453 291.806 90.7226C291.298 91 290.703 91.1386 290.021 91.1386C289.235 91.1386 288.519 90.9364 287.872 90.532C287.225 90.116 286.71 89.5324 286.329 88.7813C285.959 88.0186 285.774 87.1404 285.774 86.1466ZM293.02 86.164C293.02 85.4244 292.812 84.8409 292.396 84.4133C291.991 83.9857 291.494 83.772 290.905 83.772C290.316 83.772 289.813 83.9857 289.397 84.4133C288.993 84.8293 288.79 85.4071 288.79 86.1466C288.79 86.8862 288.993 87.4755 289.397 87.9146C289.813 88.3422 290.316 88.556 290.905 88.556C291.494 88.556 291.991 88.3422 292.396 87.9146C292.812 87.4871 293.02 86.9035 293.02 86.164Z" fill="white"/>
<path d="M299.619 80.3226C299.099 80.3226 298.671 80.1724 298.336 79.872C298.013 79.56 297.851 79.1786 297.851 78.728C297.851 78.2657 298.013 77.8844 298.336 77.584C298.671 77.272 299.099 77.116 299.619 77.116C300.127 77.116 300.543 77.272 300.867 77.584C301.202 77.8844 301.369 78.2657 301.369 78.728C301.369 79.1786 301.202 79.56 300.867 79.872C300.543 80.1724 300.127 80.3226 299.619 80.3226ZM301.092 81.328V91H298.128V81.328H301.092Z" fill="white"/>
<path d="M309.133 81.224C310.266 81.224 311.167 81.5937 311.837 82.3333C312.519 83.0613 312.86 84.0666 312.86 85.3493V91H309.913V85.748C309.913 85.1009 309.746 84.5982 309.411 84.24C309.076 83.8817 308.625 83.7026 308.059 83.7026C307.493 83.7026 307.042 83.8817 306.707 84.24C306.372 84.5982 306.204 85.1009 306.204 85.748V91H303.24V81.328H306.204V82.6106C306.505 82.1831 306.909 81.848 307.417 81.6053C307.926 81.3511 308.498 81.224 309.133 81.224Z" fill="white"/>
<path d="M314.33 86.1466C314.33 85.1529 314.515 84.2804 314.885 83.5293C315.266 82.7782 315.781 82.2004 316.428 81.796C317.075 81.3915 317.797 81.1893 318.594 81.1893C319.276 81.1893 319.871 81.328 320.38 81.6053C320.9 81.8826 321.298 82.2466 321.576 82.6973V81.328H324.54V91H321.576V89.6306C321.287 90.0813 320.882 90.4453 320.362 90.7226C319.854 91 319.259 91.1386 318.577 91.1386C317.791 91.1386 317.075 90.9364 316.428 90.532C315.781 90.116 315.266 89.5324 314.885 88.7813C314.515 88.0186 314.33 87.1404 314.33 86.1466ZM321.576 86.164C321.576 85.4244 321.368 84.8409 320.952 84.4133C320.547 83.9857 320.05 83.772 319.461 83.772C318.872 83.772 318.369 83.9857 317.953 84.4133C317.549 84.8293 317.346 85.4071 317.346 86.1466C317.346 86.8862 317.549 87.4755 317.953 87.9146C318.369 88.3422 318.872 88.556 319.461 88.556C320.05 88.556 320.547 88.3422 320.952 87.9146C321.368 87.4871 321.576 86.9035 321.576 86.164Z" fill="white"/>
<path d="M329.648 82.6973C329.925 82.2466 330.324 81.8826 330.844 81.6053C331.364 81.328 331.959 81.1893 332.629 81.1893C333.427 81.1893 334.149 81.3915 334.796 81.796C335.443 82.2004 335.952 82.7782 336.321 83.5293C336.703 84.2804 336.893 85.1529 336.893 86.1466C336.893 87.1404 336.703 88.0186 336.321 88.7813C335.952 89.5324 335.443 90.116 334.796 90.532C334.149 90.9364 333.427 91.1386 332.629 91.1386C331.948 91.1386 331.353 91.0057 330.844 90.74C330.336 90.4626 329.937 90.0986 329.648 89.648V91H326.684V78.1733H329.648V82.6973ZM333.877 86.1466C333.877 85.4071 333.669 84.8293 333.253 84.4133C332.849 83.9857 332.346 83.772 331.745 83.772C331.156 83.772 330.653 83.9857 330.237 84.4133C329.833 84.8409 329.631 85.4244 329.631 86.164C329.631 86.9035 329.833 87.4871 330.237 87.9146C330.653 88.3422 331.156 88.556 331.745 88.556C332.335 88.556 332.837 88.3422 333.253 87.9146C333.669 87.4755 333.877 86.8862 333.877 86.1466Z" fill="white"/>
<path d="M339.939 80.3226C339.419 80.3226 338.992 80.1724 338.656 79.872C338.333 79.56 338.171 79.1786 338.171 78.728C338.171 78.2657 338.333 77.8844 338.656 77.584C338.992 77.272 339.419 77.116 339.939 77.116C340.448 77.116 340.864 77.272 341.187 77.584C341.522 77.8844 341.69 78.2657 341.69 78.728C341.69 79.1786 341.522 79.56 341.187 79.872C340.864 80.1724 340.448 80.3226 339.939 80.3226ZM341.412 81.328V91H338.448V81.328H341.412Z" fill="white"/>
<path d="M346.524 78.1733V91H343.56V78.1733H346.524Z" fill="white"/>
<path d="M350.163 80.3226C349.643 80.3226 349.215 80.1724 348.88 79.872C348.557 79.56 348.395 79.1786 348.395 78.728C348.395 78.2657 348.557 77.8844 348.88 77.584C349.215 77.272 349.643 77.116 350.163 77.116C350.671 77.116 351.087 77.272 351.411 77.584C351.746 77.8844 351.914 78.2657 351.914 78.728C351.914 79.1786 351.746 79.56 351.411 79.872C351.087 80.1724 350.671 80.3226 350.163 80.3226ZM351.636 81.328V91H348.672V81.328H351.636Z" fill="white"/>
<path d="M359.175 88.4866V91H357.667C356.592 91 355.755 90.74 355.154 90.22C354.553 89.6884 354.252 88.8275 354.252 87.6373V83.7893H353.074V81.328H354.252V78.9706H357.216V81.328H359.158V83.7893H357.216V87.672C357.216 87.9609 357.286 88.1689 357.424 88.296C357.563 88.4231 357.794 88.4866 358.118 88.4866H359.175Z" fill="white"/>
<path d="M370.706 81.328L364.639 95.5933H361.45L363.669 90.6706L359.734 81.328H363.045L365.281 87.3773L367.499 81.328H370.706Z" fill="white"/>
<path d="M384.724 82.7493C384.724 83.4542 384.563 84.1013 384.239 84.6906C383.915 85.2684 383.419 85.7364 382.748 86.0946C382.078 86.4529 381.246 86.632 380.252 86.632H378.415V91H375.451V78.832H380.252C381.223 78.832 382.043 78.9995 382.714 79.3346C383.384 79.6697 383.887 80.132 384.222 80.7213C384.557 81.3106 384.724 81.9866 384.724 82.7493ZM380.027 84.2746C380.593 84.2746 381.015 84.1417 381.292 83.876C381.57 83.6102 381.708 83.2346 381.708 82.7493C381.708 82.264 381.57 81.8884 381.292 81.6226C381.015 81.3569 380.593 81.224 380.027 81.224H378.415V84.2746H380.027Z" fill="white"/>
<path d="M389.231 78.1733V91H386.267V78.1733H389.231Z" fill="white"/>
<path d="M390.79 86.1466C390.79 85.1529 390.975 84.2804 391.345 83.5293C391.726 82.7782 392.24 82.2004 392.887 81.796C393.535 81.3915 394.257 81.1893 395.054 81.1893C395.736 81.1893 396.331 81.328 396.839 81.6053C397.359 81.8826 397.758 82.2466 398.035 82.6973V81.328H400.999V91H398.035V89.6306C397.747 90.0813 397.342 90.4453 396.822 90.7226C396.314 91 395.719 91.1386 395.037 91.1386C394.251 91.1386 393.535 90.9364 392.887 90.532C392.24 90.116 391.726 89.5324 391.345 88.7813C390.975 88.0186 390.79 87.1404 390.79 86.1466ZM398.035 86.164C398.035 85.4244 397.827 84.8409 397.411 84.4133C397.007 83.9857 396.51 83.772 395.921 83.772C395.331 83.772 394.829 83.9857 394.413 84.4133C394.008 84.8293 393.806 85.4071 393.806 86.1466C393.806 86.8862 394.008 87.4755 394.413 87.9146C394.829 88.3422 395.331 88.556 395.921 88.556C396.51 88.556 397.007 88.3422 397.411 87.9146C397.827 87.4871 398.035 86.9035 398.035 86.164Z" fill="white"/>
<path d="M408.534 88.4866V91H407.026C405.952 91 405.114 90.74 404.513 90.22C403.912 89.6884 403.612 88.8275 403.612 87.6373V83.7893H402.433V81.328H403.612V78.9706H406.576V81.328H408.517V83.7893H406.576V87.672C406.576 87.9609 406.645 88.1689 406.784 88.296C406.922 88.4231 407.154 88.4866 407.477 88.4866H408.534Z" fill="white"/>
<path d="M415.039 83.7893H413.444V91H410.48V83.7893H409.405V81.328H410.48V81.0506C410.48 79.8604 410.821 78.9591 411.503 78.3466C412.185 77.7226 413.184 77.4106 414.501 77.4106C414.721 77.4106 414.883 77.4164 414.987 77.428V79.9413C414.421 79.9066 414.022 79.9875 413.791 80.184C413.56 80.3804 413.444 80.7329 413.444 81.2413V81.328H415.039V83.7893Z" fill="white"/>
<path d="M420.834 91.1386C419.887 91.1386 419.031 90.9364 418.269 90.532C417.518 90.1275 416.923 89.5497 416.483 88.7986C416.056 88.0475 415.842 87.1693 415.842 86.164C415.842 85.1702 416.062 84.2977 416.501 83.5466C416.94 82.784 417.541 82.2004 418.304 81.796C419.066 81.3915 419.921 81.1893 420.869 81.1893C421.816 81.1893 422.672 81.3915 423.434 81.796C424.197 82.2004 424.798 82.784 425.237 83.5466C425.676 84.2977 425.895 85.1702 425.895 86.164C425.895 87.1577 425.67 88.036 425.219 88.7986C424.78 89.5497 424.174 90.1275 423.4 90.532C422.637 90.9364 421.782 91.1386 420.834 91.1386ZM420.834 88.5733C421.4 88.5733 421.88 88.3653 422.273 87.9493C422.677 87.5333 422.88 86.9382 422.88 86.164C422.88 85.3897 422.683 84.7946 422.29 84.3786C421.909 83.9626 421.435 83.7546 420.869 83.7546C420.291 83.7546 419.812 83.9626 419.43 84.3786C419.049 84.7831 418.858 85.3782 418.858 86.164C418.858 86.9382 419.043 87.5333 419.413 87.9493C419.794 88.3653 420.268 88.5733 420.834 88.5733Z" fill="white"/>
<path d="M430.432 82.94C430.779 82.4084 431.212 81.9924 431.732 81.692C432.252 81.38 432.83 81.224 433.465 81.224V84.3613H432.651C431.911 84.3613 431.356 84.5231 430.987 84.8466C430.617 85.1586 430.432 85.7133 430.432 86.5106V91H427.468V81.328H430.432V82.94Z" fill="white"/>
<path d="M447.223 81.224C448.425 81.224 449.378 81.588 450.083 82.316C450.8 83.044 451.158 84.0551 451.158 85.3493V91H448.211V85.748C448.211 85.124 448.044 84.6444 447.709 84.3093C447.385 83.9626 446.934 83.7893 446.357 83.7893C445.779 83.7893 445.322 83.9626 444.987 84.3093C444.664 84.6444 444.502 85.124 444.502 85.748V91H441.555V85.748C441.555 85.124 441.388 84.6444 441.053 84.3093C440.729 83.9626 440.278 83.7893 439.701 83.7893C439.123 83.7893 438.666 83.9626 438.331 84.3093C438.008 84.6444 437.846 85.124 437.846 85.748V91H434.882V81.328H437.846V82.5413C438.146 82.1369 438.539 81.8191 439.025 81.588C439.51 81.3453 440.059 81.224 440.671 81.224C441.399 81.224 442.046 81.38 442.613 81.692C443.19 82.004 443.641 82.4489 443.965 83.0266C444.3 82.4951 444.756 82.0617 445.334 81.7266C445.912 81.3915 446.542 81.224 447.223 81.224Z" fill="white"/>
</svg>
